<svg width="57" height="60" viewBox="0 0 57 60" fill="none" xmlns="http://www.w3.org/2000/svg">
<rect y="5" width="57" height="51" rx="10" fill="white"/>
<path d="M14.32 29.92C14.32 27.1467 14.92 24.68 16.12 22.52C17.32 20.3333 18.9867 18.64 21.12 17.44C23.28 16.2133 25.72 15.6 28.44 15.6C31.7733 15.6 34.6267 16.48 37 18.24C39.3733 20 40.96 22.4 41.76 25.44H34.24C33.68 24.2667 32.88 23.3733 31.84 22.76C30.8267 22.1467 29.6667 21.84 28.36 21.84C26.2533 21.84 24.5467 22.5733 23.24 24.04C21.9333 25.5067 21.28 27.4667 21.28 29.92C21.28 32.3733 21.9333 34.3333 23.24 35.8C24.5467 37.2667 26.2533 38 28.36 38C29.6667 38 30.8267 37.6933 31.84 37.08C32.88 36.4667 33.68 35.5733 34.24 34.4H41.76C40.96 37.44 39.3733 39.84 37 41.6C34.6267 43.3333 31.7733 44.2 28.44 44.2C25.72 44.2 23.28 43.6 21.12 42.4C18.9867 41.1733 17.32 39.48 16.12 37.32C14.92 35.16 14.32 32.6933 14.32 29.92Z" fill="#11C158"/>
<rect y="5" width="57" height="51" rx="10" fill="#28374B"/>
<path d="M14.32 29.92C14.32 27.1467 14.92 24.68 16.12 22.52C17.32 20.3333 18.9867 18.64 21.12 17.44C23.28 16.2133 25.72 15.6 28.44 15.6C31.7733 15.6 34.6267 16.48 37 18.24C39.3733 20 40.96 22.4 41.76 25.44H34.24C33.68 24.2667 32.88 23.3733 31.84 22.76C30.8267 22.1467 29.6667 21.84 28.36 21.84C26.2533 21.84 24.5467 22.5733 23.24 24.04C21.9333 25.5067 21.28 27.4667 21.28 29.92C21.28 32.3733 21.9333 34.3333 23.24 35.8C24.5467 37.2667 26.2533 38 28.36 38C29.6667 38 30.8267 37.6933 31.84 37.08C32.88 36.4667 33.68 35.5733 34.24 34.4H41.76C40.96 37.44 39.3733 39.84 37 41.6C34.6267 43.3333 31.7733 44.2 28.44 44.2C25.72 44.2 23.28 43.6 21.12 42.4C18.9867 41.1733 17.32 39.48 16.12 37.32C14.92 35.16 14.32 32.6933 14.32 29.92Z" fill="white"/>
</svg>
