<svg width="57" height="51" viewBox="0 0 57 51" fill="none" xmlns="http://www.w3.org/2000/svg">
<rect width="57" height="51" rx="10" fill="white"/>
<path d="M14.32 24.92C14.32 22.1467 14.92 19.68 16.12 17.52C17.32 15.3333 18.9867 13.64 21.12 12.44C23.28 11.2133 25.72 10.6 28.44 10.6C31.7733 10.6 34.6267 11.48 37 13.24C39.3733 15 40.96 17.4 41.76 20.44H34.24C33.68 19.2667 32.88 18.3733 31.84 17.76C30.8267 17.1467 29.6667 16.84 28.36 16.84C26.2533 16.84 24.5467 17.5733 23.24 19.04C21.9333 20.5067 21.28 22.4667 21.28 24.92C21.28 27.3733 21.9333 29.3333 23.24 30.8C24.5467 32.2667 26.2533 33 28.36 33C29.6667 33 30.8267 32.6933 31.84 32.08C32.88 31.4667 33.68 30.5733 34.24 29.4H41.76C40.96 32.44 39.3733 34.84 37 36.6C34.6267 38.3333 31.7733 39.2 28.44 39.2C25.72 39.2 23.28 38.6 21.12 37.4C18.9867 36.1733 17.32 34.48 16.12 32.32C14.92 30.16 14.32 27.6933 14.32 24.92Z" fill="#11C158"/>
<rect width="57" height="51" rx="10" fill="white"/>
<path d="M14.32 24.92C14.32 22.1467 14.92 19.68 16.12 17.52C17.32 15.3333 18.9867 13.64 21.12 12.44C23.28 11.2133 25.72 10.6 28.44 10.6C31.7733 10.6 34.6267 11.48 37 13.24C39.3733 15 40.96 17.4 41.76 20.44H34.24C33.68 19.2667 32.88 18.3733 31.84 17.76C30.8267 17.1467 29.6667 16.84 28.36 16.84C26.2533 16.84 24.5467 17.5733 23.24 19.04C21.9333 20.5067 21.28 22.4667 21.28 24.92C21.28 27.3733 21.9333 29.3333 23.24 30.8C24.5467 32.2667 26.2533 33 28.36 33C29.6667 33 30.8267 32.6933 31.84 32.08C32.88 31.4667 33.68 30.5733 34.24 29.4H41.76C40.96 32.44 39.3733 34.84 37 36.6C34.6267 38.3333 31.7733 39.2 28.44 39.2C25.72 39.2 23.28 38.6 21.12 37.4C18.9867 36.1733 17.32 34.48 16.12 32.32C14.92 30.16 14.32 27.6933 14.32 24.92Z" fill="#11C158"/>
</svg>
